<mxfile host="app.diagrams.net" modified="2024-06-10T13:35:42.481Z" agent="Mozilla/5.0 (Windows NT 10.0; Win64; x64) AppleWebKit/537.36 (KHTML, like Gecko) Chrome/123.0.0.0 Safari/537.36 OPR/109.0.0.0" etag="bnT1jFbXWOLHY6tw4cE_" version="24.5.2" type="device">
  <diagram name="Page-1" id="qOYtJ3URDMTp-ic7gaBc">
    <mxGraphModel dx="673" dy="1863" grid="1" gridSize="10" guides="1" tooltips="1" connect="1" arrows="1" fold="1" page="1" pageScale="1" pageWidth="850" pageHeight="1100" math="0" shadow="0">
      <root>
        <mxCell id="0" />
        <mxCell id="1" parent="0" />
        <mxCell id="BrGVKOQn4dJ51czFZwVR-43" style="edgeStyle=orthogonalEdgeStyle;rounded=0;orthogonalLoop=1;jettySize=auto;html=1;exitX=1;exitY=0.5;exitDx=0;exitDy=0;exitPerimeter=0;entryX=0.5;entryY=0;entryDx=0;entryDy=0;" edge="1" parent="1" source="BrGVKOQn4dJ51czFZwVR-1" target="BrGVKOQn4dJ51czFZwVR-42">
          <mxGeometry relative="1" as="geometry">
            <Array as="points">
              <mxPoint x="895" y="85" />
            </Array>
          </mxGeometry>
        </mxCell>
        <mxCell id="BrGVKOQn4dJ51czFZwVR-1" value="" style="shape=line;html=1;strokeWidth=6;strokeColor=#ff0000;" vertex="1" parent="1">
          <mxGeometry x="40" y="80" width="870" height="10" as="geometry" />
        </mxCell>
        <mxCell id="BrGVKOQn4dJ51czFZwVR-2" value="" style="edgeStyle=orthogonalEdgeStyle;html=1;verticalAlign=bottom;endArrow=open;endSize=8;strokeColor=#ff0000;rounded=0;" edge="1" parent="1">
          <mxGeometry relative="1" as="geometry">
            <mxPoint x="60" y="165" as="targetPoint" />
            <mxPoint x="60" y="95" as="sourcePoint" />
          </mxGeometry>
        </mxCell>
        <mxCell id="BrGVKOQn4dJ51czFZwVR-3" value="" style="ellipse;html=1;shape=startState;fillColor=#000000;strokeColor=#ff0000;" vertex="1" parent="1">
          <mxGeometry x="425" y="-10" width="30" height="30" as="geometry" />
        </mxCell>
        <mxCell id="BrGVKOQn4dJ51czFZwVR-4" value="" style="edgeStyle=orthogonalEdgeStyle;html=1;verticalAlign=bottom;endArrow=open;endSize=8;strokeColor=#ff0000;rounded=0;" edge="1" source="BrGVKOQn4dJ51czFZwVR-3" parent="1">
          <mxGeometry relative="1" as="geometry">
            <mxPoint x="440" y="80" as="targetPoint" />
          </mxGeometry>
        </mxCell>
        <mxCell id="BrGVKOQn4dJ51czFZwVR-5" value="Tests.jar uztartēšana" style="text;html=1;align=center;verticalAlign=middle;resizable=0;points=[];autosize=1;strokeColor=none;fillColor=none;" vertex="1" parent="1">
          <mxGeometry x="455" y="-10" width="130" height="30" as="geometry" />
        </mxCell>
        <mxCell id="BrGVKOQn4dJ51czFZwVR-7" value="Info logs" style="rounded=1;whiteSpace=wrap;html=1;" vertex="1" parent="1">
          <mxGeometry y="165" width="120" height="60" as="geometry" />
        </mxCell>
        <mxCell id="BrGVKOQn4dJ51czFZwVR-15" style="edgeStyle=orthogonalEdgeStyle;rounded=0;orthogonalLoop=1;jettySize=auto;html=1;exitX=0.5;exitY=1;exitDx=0;exitDy=0;entryX=0.5;entryY=0;entryDx=0;entryDy=0;" edge="1" parent="1" source="BrGVKOQn4dJ51czFZwVR-10" target="BrGVKOQn4dJ51czFZwVR-14">
          <mxGeometry relative="1" as="geometry" />
        </mxCell>
        <mxCell id="BrGVKOQn4dJ51czFZwVR-10" value="Ievada Vardu un Uzvārdu" style="rounded=1;whiteSpace=wrap;html=1;" vertex="1" parent="1">
          <mxGeometry x="180" y="165" width="120" height="60" as="geometry" />
        </mxCell>
        <mxCell id="BrGVKOQn4dJ51czFZwVR-13" value="" style="endArrow=classic;html=1;rounded=0;exitX=0.25;exitY=0.5;exitDx=0;exitDy=0;exitPerimeter=0;entryX=0.5;entryY=0;entryDx=0;entryDy=0;" edge="1" parent="1" source="BrGVKOQn4dJ51czFZwVR-1" target="BrGVKOQn4dJ51czFZwVR-10">
          <mxGeometry width="50" height="50" relative="1" as="geometry">
            <mxPoint x="260" y="90" as="sourcePoint" />
            <mxPoint x="210" y="345" as="targetPoint" />
          </mxGeometry>
        </mxCell>
        <mxCell id="BrGVKOQn4dJ51czFZwVR-17" style="edgeStyle=orthogonalEdgeStyle;rounded=0;orthogonalLoop=1;jettySize=auto;html=1;exitX=0.5;exitY=1;exitDx=0;exitDy=0;entryX=0.5;entryY=0;entryDx=0;entryDy=0;" edge="1" parent="1" source="BrGVKOQn4dJ51czFZwVR-14" target="BrGVKOQn4dJ51czFZwVR-16">
          <mxGeometry relative="1" as="geometry" />
        </mxCell>
        <mxCell id="BrGVKOQn4dJ51czFZwVR-19" style="edgeStyle=orthogonalEdgeStyle;rounded=0;orthogonalLoop=1;jettySize=auto;html=1;exitX=0;exitY=0.5;exitDx=0;exitDy=0;" edge="1" parent="1" source="BrGVKOQn4dJ51czFZwVR-14">
          <mxGeometry relative="1" as="geometry">
            <mxPoint x="140" y="100" as="targetPoint" />
          </mxGeometry>
        </mxCell>
        <mxCell id="BrGVKOQn4dJ51czFZwVR-20" value="Ne" style="edgeLabel;html=1;align=center;verticalAlign=middle;resizable=0;points=[];" vertex="1" connectable="0" parent="BrGVKOQn4dJ51czFZwVR-19">
          <mxGeometry x="-0.7699" y="-3" relative="1" as="geometry">
            <mxPoint as="offset" />
          </mxGeometry>
        </mxCell>
        <mxCell id="BrGVKOQn4dJ51czFZwVR-14" value="Vards &amp;gt; 3" style="rhombus;whiteSpace=wrap;html=1;" vertex="1" parent="1">
          <mxGeometry x="200" y="270" width="80" height="80" as="geometry" />
        </mxCell>
        <mxCell id="BrGVKOQn4dJ51czFZwVR-22" style="edgeStyle=orthogonalEdgeStyle;rounded=0;orthogonalLoop=1;jettySize=auto;html=1;exitX=0.5;exitY=1;exitDx=0;exitDy=0;entryX=0.5;entryY=0;entryDx=0;entryDy=0;" edge="1" parent="1" source="BrGVKOQn4dJ51czFZwVR-16" target="BrGVKOQn4dJ51czFZwVR-21">
          <mxGeometry relative="1" as="geometry" />
        </mxCell>
        <mxCell id="BrGVKOQn4dJ51czFZwVR-16" value="Uzvārds &amp;gt; 3" style="rhombus;whiteSpace=wrap;html=1;" vertex="1" parent="1">
          <mxGeometry x="200" y="380" width="80" height="80" as="geometry" />
        </mxCell>
        <mxCell id="BrGVKOQn4dJ51czFZwVR-18" value="Jā" style="text;html=1;align=center;verticalAlign=middle;resizable=0;points=[];autosize=1;strokeColor=none;fillColor=none;" vertex="1" parent="1">
          <mxGeometry x="230" y="348" width="40" height="30" as="geometry" />
        </mxCell>
        <mxCell id="BrGVKOQn4dJ51czFZwVR-23" style="edgeStyle=orthogonalEdgeStyle;rounded=0;orthogonalLoop=1;jettySize=auto;html=1;exitX=1;exitY=0.25;exitDx=0;exitDy=0;" edge="1" parent="1" source="BrGVKOQn4dJ51czFZwVR-21">
          <mxGeometry relative="1" as="geometry">
            <mxPoint x="360" y="110" as="targetPoint" />
          </mxGeometry>
        </mxCell>
        <mxCell id="BrGVKOQn4dJ51czFZwVR-21" value="Turpināt poga darbojas" style="rounded=1;whiteSpace=wrap;html=1;" vertex="1" parent="1">
          <mxGeometry x="180" y="490" width="120" height="60" as="geometry" />
        </mxCell>
        <mxCell id="BrGVKOQn4dJ51czFZwVR-27" style="edgeStyle=orthogonalEdgeStyle;rounded=0;orthogonalLoop=1;jettySize=auto;html=1;exitX=0.5;exitY=1;exitDx=0;exitDy=0;entryX=0.5;entryY=0;entryDx=0;entryDy=0;" edge="1" parent="1" source="BrGVKOQn4dJ51czFZwVR-24" target="BrGVKOQn4dJ51czFZwVR-26">
          <mxGeometry relative="1" as="geometry" />
        </mxCell>
        <mxCell id="BrGVKOQn4dJ51czFZwVR-24" value="Testa loga parādīšana" style="rounded=1;whiteSpace=wrap;html=1;" vertex="1" parent="1">
          <mxGeometry x="410" y="165" width="120" height="60" as="geometry" />
        </mxCell>
        <mxCell id="BrGVKOQn4dJ51czFZwVR-25" value="" style="endArrow=classic;html=1;rounded=0;exitX=0.25;exitY=0.5;exitDx=0;exitDy=0;exitPerimeter=0;entryX=0.5;entryY=0;entryDx=0;entryDy=0;" edge="1" parent="1">
          <mxGeometry width="50" height="50" relative="1" as="geometry">
            <mxPoint x="480" y="85" as="sourcePoint" />
            <mxPoint x="480" y="165" as="targetPoint" />
          </mxGeometry>
        </mxCell>
        <mxCell id="BrGVKOQn4dJ51czFZwVR-28" style="edgeStyle=orthogonalEdgeStyle;rounded=0;orthogonalLoop=1;jettySize=auto;html=1;exitX=0;exitY=0.5;exitDx=0;exitDy=0;" edge="1" parent="1" source="BrGVKOQn4dJ51czFZwVR-26">
          <mxGeometry relative="1" as="geometry">
            <mxPoint x="380" y="110" as="targetPoint" />
          </mxGeometry>
        </mxCell>
        <mxCell id="BrGVKOQn4dJ51czFZwVR-29" value="nē" style="edgeLabel;html=1;align=center;verticalAlign=middle;resizable=0;points=[];" vertex="1" connectable="0" parent="BrGVKOQn4dJ51czFZwVR-28">
          <mxGeometry x="-0.8836" y="-2" relative="1" as="geometry">
            <mxPoint as="offset" />
          </mxGeometry>
        </mxCell>
        <mxCell id="BrGVKOQn4dJ51czFZwVR-30" style="edgeStyle=orthogonalEdgeStyle;rounded=0;orthogonalLoop=1;jettySize=auto;html=1;exitX=0.5;exitY=1;exitDx=0;exitDy=0;" edge="1" parent="1" source="BrGVKOQn4dJ51czFZwVR-26" target="BrGVKOQn4dJ51czFZwVR-31">
          <mxGeometry relative="1" as="geometry">
            <mxPoint x="470" y="450" as="targetPoint" />
          </mxGeometry>
        </mxCell>
        <mxCell id="BrGVKOQn4dJ51czFZwVR-38" value="Ja" style="edgeLabel;html=1;align=center;verticalAlign=middle;resizable=0;points=[];" vertex="1" connectable="0" parent="BrGVKOQn4dJ51czFZwVR-30">
          <mxGeometry x="0.0185" relative="1" as="geometry">
            <mxPoint as="offset" />
          </mxGeometry>
        </mxCell>
        <mxCell id="BrGVKOQn4dJ51czFZwVR-26" value="Turpināt == true" style="rhombus;whiteSpace=wrap;html=1;" vertex="1" parent="1">
          <mxGeometry x="415" y="270" width="110" height="92" as="geometry" />
        </mxCell>
        <mxCell id="BrGVKOQn4dJ51czFZwVR-32" style="edgeStyle=orthogonalEdgeStyle;rounded=0;orthogonalLoop=1;jettySize=auto;html=1;exitX=1;exitY=0.5;exitDx=0;exitDy=0;" edge="1" parent="1" source="BrGVKOQn4dJ51czFZwVR-31">
          <mxGeometry relative="1" as="geometry">
            <mxPoint x="590" y="110" as="targetPoint" />
          </mxGeometry>
        </mxCell>
        <mxCell id="BrGVKOQn4dJ51czFZwVR-31" value="Uzrāda jautajumus" style="rounded=1;whiteSpace=wrap;html=1;" vertex="1" parent="1">
          <mxGeometry x="410" y="470" width="120" height="60" as="geometry" />
        </mxCell>
        <mxCell id="BrGVKOQn4dJ51czFZwVR-36" style="edgeStyle=orthogonalEdgeStyle;rounded=0;orthogonalLoop=1;jettySize=auto;html=1;exitX=0.5;exitY=1;exitDx=0;exitDy=0;" edge="1" parent="1" source="BrGVKOQn4dJ51czFZwVR-33">
          <mxGeometry relative="1" as="geometry">
            <mxPoint x="690" y="280" as="targetPoint" />
          </mxGeometry>
        </mxCell>
        <mxCell id="BrGVKOQn4dJ51czFZwVR-33" value="Tests pabeigts" style="rounded=1;whiteSpace=wrap;html=1;" vertex="1" parent="1">
          <mxGeometry x="630" y="180" width="120" height="60" as="geometry" />
        </mxCell>
        <mxCell id="BrGVKOQn4dJ51czFZwVR-34" value="" style="endArrow=classic;html=1;rounded=0;exitX=0.25;exitY=0.5;exitDx=0;exitDy=0;exitPerimeter=0;entryX=0.5;entryY=0;entryDx=0;entryDy=0;" edge="1" parent="1">
          <mxGeometry width="50" height="50" relative="1" as="geometry">
            <mxPoint x="689.5" y="90" as="sourcePoint" />
            <mxPoint x="689.5" y="170" as="targetPoint" />
          </mxGeometry>
        </mxCell>
        <mxCell id="BrGVKOQn4dJ51czFZwVR-37" style="edgeStyle=orthogonalEdgeStyle;rounded=0;orthogonalLoop=1;jettySize=auto;html=1;exitX=0;exitY=0.5;exitDx=0;exitDy=0;" edge="1" parent="1" source="BrGVKOQn4dJ51czFZwVR-35">
          <mxGeometry relative="1" as="geometry">
            <mxPoint x="610" y="100" as="targetPoint" />
          </mxGeometry>
        </mxCell>
        <mxCell id="BrGVKOQn4dJ51czFZwVR-39" value="Nē" style="edgeLabel;html=1;align=center;verticalAlign=middle;resizable=0;points=[];" vertex="1" connectable="0" parent="BrGVKOQn4dJ51czFZwVR-37">
          <mxGeometry x="-0.9155" relative="1" as="geometry">
            <mxPoint as="offset" />
          </mxGeometry>
        </mxCell>
        <mxCell id="BrGVKOQn4dJ51czFZwVR-35" value="jautājumi == 10" style="rhombus;whiteSpace=wrap;html=1;" vertex="1" parent="1">
          <mxGeometry x="635" y="282" width="110" height="108" as="geometry" />
        </mxCell>
        <mxCell id="BrGVKOQn4dJ51czFZwVR-40" value="Uzrāda rezultātu par testu" style="rounded=1;whiteSpace=wrap;html=1;" vertex="1" parent="1">
          <mxGeometry x="635" y="440" width="120" height="60" as="geometry" />
        </mxCell>
        <mxCell id="BrGVKOQn4dJ51czFZwVR-41" style="edgeStyle=orthogonalEdgeStyle;rounded=0;orthogonalLoop=1;jettySize=auto;html=1;exitX=0.5;exitY=1;exitDx=0;exitDy=0;entryX=0.558;entryY=0.033;entryDx=0;entryDy=0;entryPerimeter=0;" edge="1" parent="1" source="BrGVKOQn4dJ51czFZwVR-35" target="BrGVKOQn4dJ51czFZwVR-40">
          <mxGeometry relative="1" as="geometry" />
        </mxCell>
        <mxCell id="BrGVKOQn4dJ51czFZwVR-42" value="" style="ellipse;html=1;shape=endState;fillColor=#000000;strokeColor=#ff0000;" vertex="1" parent="1">
          <mxGeometry x="880" y="460" width="30" height="30" as="geometry" />
        </mxCell>
        <mxCell id="BrGVKOQn4dJ51czFZwVR-44" value="" style="endArrow=classic;html=1;rounded=0;exitX=0.25;exitY=0.5;exitDx=0;exitDy=0;exitPerimeter=0;" edge="1" parent="1">
          <mxGeometry width="50" height="50" relative="1" as="geometry">
            <mxPoint x="800" y="160" as="sourcePoint" />
            <mxPoint x="880" y="160" as="targetPoint" />
            <Array as="points">
              <mxPoint x="870" y="160" />
            </Array>
          </mxGeometry>
        </mxCell>
        <mxCell id="BrGVKOQn4dJ51czFZwVR-45" value="" style="endArrow=classic;html=1;rounded=0;exitX=0.25;exitY=0.5;exitDx=0;exitDy=0;exitPerimeter=0;" edge="1" parent="1">
          <mxGeometry width="50" height="50" relative="1" as="geometry">
            <mxPoint x="800" y="224" as="sourcePoint" />
            <mxPoint x="880" y="224" as="targetPoint" />
            <Array as="points">
              <mxPoint x="870" y="224" />
            </Array>
          </mxGeometry>
        </mxCell>
        <mxCell id="BrGVKOQn4dJ51czFZwVR-46" value="" style="endArrow=classic;html=1;rounded=0;exitX=0.25;exitY=0.5;exitDx=0;exitDy=0;exitPerimeter=0;" edge="1" parent="1">
          <mxGeometry width="50" height="50" relative="1" as="geometry">
            <mxPoint x="800" y="309.5" as="sourcePoint" />
            <mxPoint x="880" y="309.5" as="targetPoint" />
            <Array as="points">
              <mxPoint x="870" y="309.5" />
            </Array>
          </mxGeometry>
        </mxCell>
        <mxCell id="BrGVKOQn4dJ51czFZwVR-47" value="" style="endArrow=classic;html=1;rounded=0;exitX=0.25;exitY=0.5;exitDx=0;exitDy=0;exitPerimeter=0;" edge="1" parent="1">
          <mxGeometry width="50" height="50" relative="1" as="geometry">
            <mxPoint x="800" y="400" as="sourcePoint" />
            <mxPoint x="880" y="400" as="targetPoint" />
            <Array as="points">
              <mxPoint x="870" y="400" />
            </Array>
          </mxGeometry>
        </mxCell>
      </root>
    </mxGraphModel>
  </diagram>
</mxfile>
